<?xml version="1.0" encoding="UTF-8"?>
<!DOCTYPE svg PUBLIC "-//W3C//DTD SVG 1.1//EN" "http://www.w3.org/Graphics/SVG/1.1/DTD/svg11.dtd">
<svg width="339mm" height="152mm" viewBox="0 0 33900 15200" version="1.1" baseProfile="tiny" xmlns="http://www.w3.org/2000/svg" stroke-width="28.222" stroke-linejoin="round" xml:space="preserve">
 <path fill="rgb(255,255,255)" stroke="none" d="M 16939,15240 L 0,15240 0,0 33877,0 33877,15240 16939,15240 Z"/>
 <path fill="none" stroke="rgb(179,179,179)" stroke-linejoin="round" d="M 17374,14104 L 3256,14104 3256,1575 31493,1575 31493,14104 17374,14104 Z"/>
 <path fill="none" stroke="rgb(179,179,179)" stroke-linejoin="round" d="M 31493,14103 L 3256,14103"/>
 <path fill="none" stroke="rgb(179,179,179)" stroke-linejoin="round" d="M 31493,12313 L 3256,12313"/>
 <path fill="none" stroke="rgb(179,179,179)" stroke-linejoin="round" d="M 31493,10523 L 3256,10523"/>
 <path fill="none" stroke="rgb(179,179,179)" stroke-linejoin="round" d="M 31493,8733 L 3256,8733"/>
 <path fill="none" stroke="rgb(179,179,179)" stroke-linejoin="round" d="M 31493,6944 L 3256,6944"/>
 <path fill="none" stroke="rgb(179,179,179)" stroke-linejoin="round" d="M 31493,5154 L 3256,5154"/>
 <path fill="none" stroke="rgb(179,179,179)" stroke-linejoin="round" d="M 31493,3364 L 3256,3364"/>
 <path fill="none" stroke="rgb(179,179,179)" stroke-linejoin="round" d="M 31493,1574 L 3256,1574"/>
 <path fill="none" stroke="rgb(179,179,179)" stroke-linejoin="round" d="M 3256,14253 L 3256,14103"/>
 <path fill="none" stroke="rgb(179,179,179)" stroke-linejoin="round" d="M 3256,14253 L 3256,14103"/>
 <path fill="none" stroke="rgb(179,179,179)" stroke-linejoin="round" d="M 4111,14253 L 4111,14103"/>
 <path fill="none" stroke="rgb(179,179,179)" stroke-linejoin="round" d="M 4111,14253 L 4111,14103"/>
 <path fill="none" stroke="rgb(179,179,179)" stroke-linejoin="round" d="M 4967,14253 L 4967,14103"/>
 <path fill="none" stroke="rgb(179,179,179)" stroke-linejoin="round" d="M 4967,14253 L 4967,14103"/>
 <path fill="none" stroke="rgb(179,179,179)" stroke-linejoin="round" d="M 5823,14253 L 5823,14103"/>
 <path fill="none" stroke="rgb(179,179,179)" stroke-linejoin="round" d="M 5823,14253 L 5823,14103"/>
 <path fill="none" stroke="rgb(179,179,179)" stroke-linejoin="round" d="M 6678,14253 L 6678,14103"/>
 <path fill="none" stroke="rgb(179,179,179)" stroke-linejoin="round" d="M 6678,14253 L 6678,14103"/>
 <path fill="none" stroke="rgb(179,179,179)" stroke-linejoin="round" d="M 7534,14253 L 7534,14103"/>
 <path fill="none" stroke="rgb(179,179,179)" stroke-linejoin="round" d="M 7534,14253 L 7534,14103"/>
 <path fill="none" stroke="rgb(179,179,179)" stroke-linejoin="round" d="M 8390,14253 L 8390,14103"/>
 <path fill="none" stroke="rgb(179,179,179)" stroke-linejoin="round" d="M 8390,14253 L 8390,14103"/>
 <path fill="none" stroke="rgb(179,179,179)" stroke-linejoin="round" d="M 9245,14253 L 9245,14103"/>
 <path fill="none" stroke="rgb(179,179,179)" stroke-linejoin="round" d="M 9245,14253 L 9245,14103"/>
 <path fill="none" stroke="rgb(179,179,179)" stroke-linejoin="round" d="M 10101,14253 L 10101,14103"/>
 <path fill="none" stroke="rgb(179,179,179)" stroke-linejoin="round" d="M 10101,14253 L 10101,14103"/>
 <path fill="none" stroke="rgb(179,179,179)" stroke-linejoin="round" d="M 10957,14253 L 10957,14103"/>
 <path fill="none" stroke="rgb(179,179,179)" stroke-linejoin="round" d="M 10957,14253 L 10957,14103"/>
 <path fill="none" stroke="rgb(179,179,179)" stroke-linejoin="round" d="M 11812,14253 L 11812,14103"/>
 <path fill="none" stroke="rgb(179,179,179)" stroke-linejoin="round" d="M 11812,14253 L 11812,14103"/>
 <path fill="none" stroke="rgb(179,179,179)" stroke-linejoin="round" d="M 12668,14253 L 12668,14103"/>
 <path fill="none" stroke="rgb(179,179,179)" stroke-linejoin="round" d="M 12668,14253 L 12668,14103"/>
 <path fill="none" stroke="rgb(179,179,179)" stroke-linejoin="round" d="M 13524,14253 L 13524,14103"/>
 <path fill="none" stroke="rgb(179,179,179)" stroke-linejoin="round" d="M 13524,14253 L 13524,14103"/>
 <path fill="none" stroke="rgb(179,179,179)" stroke-linejoin="round" d="M 14380,14253 L 14380,14103"/>
 <path fill="none" stroke="rgb(179,179,179)" stroke-linejoin="round" d="M 14380,14253 L 14380,14103"/>
 <path fill="none" stroke="rgb(179,179,179)" stroke-linejoin="round" d="M 15235,14253 L 15235,14103"/>
 <path fill="none" stroke="rgb(179,179,179)" stroke-linejoin="round" d="M 15235,14253 L 15235,14103"/>
 <path fill="none" stroke="rgb(179,179,179)" stroke-linejoin="round" d="M 16091,14253 L 16091,14103"/>
 <path fill="none" stroke="rgb(179,179,179)" stroke-linejoin="round" d="M 16091,14253 L 16091,14103"/>
 <path fill="none" stroke="rgb(179,179,179)" stroke-linejoin="round" d="M 16946,14253 L 16946,14103"/>
 <path fill="none" stroke="rgb(179,179,179)" stroke-linejoin="round" d="M 16946,14253 L 16946,14103"/>
 <path fill="none" stroke="rgb(179,179,179)" stroke-linejoin="round" d="M 17801,14253 L 17801,14103"/>
 <path fill="none" stroke="rgb(179,179,179)" stroke-linejoin="round" d="M 17801,14253 L 17801,14103"/>
 <path fill="none" stroke="rgb(179,179,179)" stroke-linejoin="round" d="M 18657,14253 L 18657,14103"/>
 <path fill="none" stroke="rgb(179,179,179)" stroke-linejoin="round" d="M 18657,14253 L 18657,14103"/>
 <path fill="none" stroke="rgb(179,179,179)" stroke-linejoin="round" d="M 19513,14253 L 19513,14103"/>
 <path fill="none" stroke="rgb(179,179,179)" stroke-linejoin="round" d="M 19513,14253 L 19513,14103"/>
 <path fill="none" stroke="rgb(179,179,179)" stroke-linejoin="round" d="M 20368,14253 L 20368,14103"/>
 <path fill="none" stroke="rgb(179,179,179)" stroke-linejoin="round" d="M 20368,14253 L 20368,14103"/>
 <path fill="none" stroke="rgb(179,179,179)" stroke-linejoin="round" d="M 21224,14253 L 21224,14103"/>
 <path fill="none" stroke="rgb(179,179,179)" stroke-linejoin="round" d="M 21224,14253 L 21224,14103"/>
 <path fill="none" stroke="rgb(179,179,179)" stroke-linejoin="round" d="M 22080,14253 L 22080,14103"/>
 <path fill="none" stroke="rgb(179,179,179)" stroke-linejoin="round" d="M 22080,14253 L 22080,14103"/>
 <path fill="none" stroke="rgb(179,179,179)" stroke-linejoin="round" d="M 22936,14253 L 22936,14103"/>
 <path fill="none" stroke="rgb(179,179,179)" stroke-linejoin="round" d="M 22936,14253 L 22936,14103"/>
 <path fill="none" stroke="rgb(179,179,179)" stroke-linejoin="round" d="M 23791,14253 L 23791,14103"/>
 <path fill="none" stroke="rgb(179,179,179)" stroke-linejoin="round" d="M 23791,14253 L 23791,14103"/>
 <path fill="none" stroke="rgb(179,179,179)" stroke-linejoin="round" d="M 24647,14253 L 24647,14103"/>
 <path fill="none" stroke="rgb(179,179,179)" stroke-linejoin="round" d="M 24647,14253 L 24647,14103"/>
 <path fill="none" stroke="rgb(179,179,179)" stroke-linejoin="round" d="M 25503,14253 L 25503,14103"/>
 <path fill="none" stroke="rgb(179,179,179)" stroke-linejoin="round" d="M 25503,14253 L 25503,14103"/>
 <path fill="none" stroke="rgb(179,179,179)" stroke-linejoin="round" d="M 26358,14253 L 26358,14103"/>
 <path fill="none" stroke="rgb(179,179,179)" stroke-linejoin="round" d="M 26358,14253 L 26358,14103"/>
 <path fill="none" stroke="rgb(179,179,179)" stroke-linejoin="round" d="M 27214,14253 L 27214,14103"/>
 <path fill="none" stroke="rgb(179,179,179)" stroke-linejoin="round" d="M 27214,14253 L 27214,14103"/>
 <path fill="none" stroke="rgb(179,179,179)" stroke-linejoin="round" d="M 28070,14253 L 28070,14103"/>
 <path fill="none" stroke="rgb(179,179,179)" stroke-linejoin="round" d="M 28070,14253 L 28070,14103"/>
 <path fill="none" stroke="rgb(179,179,179)" stroke-linejoin="round" d="M 28925,14253 L 28925,14103"/>
 <path fill="none" stroke="rgb(179,179,179)" stroke-linejoin="round" d="M 28925,14253 L 28925,14103"/>
 <path fill="none" stroke="rgb(179,179,179)" stroke-linejoin="round" d="M 29781,14253 L 29781,14103"/>
 <path fill="none" stroke="rgb(179,179,179)" stroke-linejoin="round" d="M 29781,14253 L 29781,14103"/>
 <path fill="none" stroke="rgb(179,179,179)" stroke-linejoin="round" d="M 30637,14253 L 30637,14103"/>
 <path fill="none" stroke="rgb(179,179,179)" stroke-linejoin="round" d="M 30637,14253 L 30637,14103"/>
 <path fill="none" stroke="rgb(179,179,179)" stroke-linejoin="round" d="M 31493,14253 L 31493,14103"/>
 <path fill="none" stroke="rgb(179,179,179)" stroke-linejoin="round" d="M 31493,14253 L 31493,14103"/>
 <path fill="none" stroke="rgb(179,179,179)" stroke-linejoin="round" d="M 3256,14103 L 31493,14103"/>
 <path fill="none" stroke="rgb(179,179,179)" stroke-linejoin="round" d="M 3106,14103 L 3256,14103"/>
 <path fill="none" stroke="rgb(179,179,179)" stroke-linejoin="round" d="M 3106,14103 L 3256,14103"/>
 <path fill="none" stroke="rgb(179,179,179)" stroke-linejoin="round" d="M 3106,12313 L 3256,12313"/>
 <path fill="none" stroke="rgb(179,179,179)" stroke-linejoin="round" d="M 3106,12313 L 3256,12313"/>
 <path fill="none" stroke="rgb(179,179,179)" stroke-linejoin="round" d="M 3106,10523 L 3256,10523"/>
 <path fill="none" stroke="rgb(179,179,179)" stroke-linejoin="round" d="M 3106,10523 L 3256,10523"/>
 <path fill="none" stroke="rgb(179,179,179)" stroke-linejoin="round" d="M 3106,8733 L 3256,8733"/>
 <path fill="none" stroke="rgb(179,179,179)" stroke-linejoin="round" d="M 3106,8733 L 3256,8733"/>
 <path fill="none" stroke="rgb(179,179,179)" stroke-linejoin="round" d="M 3106,6944 L 3256,6944"/>
 <path fill="none" stroke="rgb(179,179,179)" stroke-linejoin="round" d="M 3106,6944 L 3256,6944"/>
 <path fill="none" stroke="rgb(179,179,179)" stroke-linejoin="round" d="M 3106,5154 L 3256,5154"/>
 <path fill="none" stroke="rgb(179,179,179)" stroke-linejoin="round" d="M 3106,5154 L 3256,5154"/>
 <path fill="none" stroke="rgb(179,179,179)" stroke-linejoin="round" d="M 3106,3364 L 3256,3364"/>
 <path fill="none" stroke="rgb(179,179,179)" stroke-linejoin="round" d="M 3106,3364 L 3256,3364"/>
 <path fill="none" stroke="rgb(179,179,179)" stroke-linejoin="round" d="M 3106,1574 L 3256,1574"/>
 <path fill="none" stroke="rgb(179,179,179)" stroke-linejoin="round" d="M 3106,1574 L 3256,1574"/>
 <path fill="none" stroke="rgb(179,179,179)" stroke-linejoin="round" d="M 3256,14103 L 3256,1574"/>
 <path fill="none" stroke="rgb(179,179,179)" stroke-linejoin="round" d="M 31643,14103 L 31493,14103"/>
 <path fill="none" stroke="rgb(179,179,179)" stroke-linejoin="round" d="M 31643,14103 L 31493,14103"/>
 <path fill="none" stroke="rgb(179,179,179)" stroke-linejoin="round" d="M 31643,12014 L 31493,12014"/>
 <path fill="none" stroke="rgb(179,179,179)" stroke-linejoin="round" d="M 31643,12014 L 31493,12014"/>
 <path fill="none" stroke="rgb(179,179,179)" stroke-linejoin="round" d="M 31643,9926 L 31493,9926"/>
 <path fill="none" stroke="rgb(179,179,179)" stroke-linejoin="round" d="M 31643,9926 L 31493,9926"/>
 <path fill="none" stroke="rgb(179,179,179)" stroke-linejoin="round" d="M 31643,7838 L 31493,7838"/>
 <path fill="none" stroke="rgb(179,179,179)" stroke-linejoin="round" d="M 31643,7838 L 31493,7838"/>
 <path fill="none" stroke="rgb(179,179,179)" stroke-linejoin="round" d="M 31643,5750 L 31493,5750"/>
 <path fill="none" stroke="rgb(179,179,179)" stroke-linejoin="round" d="M 31643,5750 L 31493,5750"/>
 <path fill="none" stroke="rgb(179,179,179)" stroke-linejoin="round" d="M 31643,3662 L 31493,3662"/>
 <path fill="none" stroke="rgb(179,179,179)" stroke-linejoin="round" d="M 31643,3662 L 31493,3662"/>
 <path fill="none" stroke="rgb(179,179,179)" stroke-linejoin="round" d="M 31643,1574 L 31493,1574"/>
 <path fill="none" stroke="rgb(179,179,179)" stroke-linejoin="round" d="M 31643,1574 L 31493,1574"/>
 <path fill="none" stroke="rgb(179,179,179)" stroke-linejoin="round" d="M 31493,14103 L 31493,1574"/>
 <path fill="rgb(0,102,204)" stroke="none" d="M 30851,14103 L 31279,14103 31279,11814 30851,11814 30851,14103 Z"/>
 <path fill="rgb(0,102,204)" stroke="none" d="M 29139,14103 L 29567,14103 29567,11632 29139,11632 29139,14103 Z"/>
 <path fill="rgb(0,102,204)" stroke="none" d="M 28284,14103 L 28711,14103 28711,9540 28284,9540 28284,14103 Z"/>
 <path fill="rgb(0,102,204)" stroke="none" d="M 27428,14103 L 27856,14103 27856,10622 27428,10622 27428,14103 Z"/>
 <path fill="rgb(0,102,204)" stroke="none" d="M 26572,14103 L 27000,14103 27000,9682 26572,9682 26572,14103 Z"/>
 <path fill="rgb(0,102,204)" stroke="none" d="M 25717,14103 L 26144,14103 26144,10355 25717,10355 25717,14103 Z"/>
 <path fill="rgb(0,102,204)" stroke="none" d="M 24861,14103 L 25289,14103 25289,8545 24861,8545 24861,14103 Z"/>
 <path fill="rgb(0,102,204)" stroke="none" d="M 24005,14103 L 24433,14103 24433,9153 24005,9153 24005,14103 Z"/>
 <path fill="rgb(0,102,204)" stroke="none" d="M 23149,14103 L 23577,14103 23577,8070 23149,8070 23149,14103 Z"/>
 <path fill="rgb(0,102,204)" stroke="none" d="M 22294,14103 L 22722,14103 22722,8294 22294,8294 22294,14103 Z"/>
 <path fill="rgb(0,102,204)" stroke="none" d="M 21438,14103 L 21866,14103 21866,8117 21438,8117 21438,14103 Z"/>
 <path fill="rgb(0,102,204)" stroke="none" d="M 20582,14103 L 21010,14103 21010,10289 20582,10289 20582,14103 Z"/>
 <path fill="rgb(0,102,204)" stroke="none" d="M 19727,14103 L 20155,14103 20155,9658 19727,9658 19727,14103 Z"/>
 <path fill="rgb(0,102,204)" stroke="none" d="M 18871,14103 L 19299,14103 19299,8901 18871,8901 18871,14103 Z"/>
 <path fill="rgb(0,102,204)" stroke="none" d="M 18015,14103 L 18443,14103 18443,7616 18015,7616 18015,14103 Z"/>
 <path fill="rgb(0,102,204)" stroke="none" d="M 17160,14103 L 17587,14103 17587,7915 17160,7915 17160,14103 Z"/>
 <path fill="rgb(0,102,204)" stroke="none" d="M 16305,14103 L 16733,14103 16733,6822 16305,6822 16305,14103 Z"/>
 <path fill="rgb(0,102,204)" stroke="none" d="M 15449,14103 L 15877,14103 15877,7447 15449,7447 15449,14103 Z"/>
 <path fill="rgb(0,102,204)" stroke="none" d="M 14593,14103 L 15021,14103 15021,5914 14593,5914 14593,14103 Z"/>
 <path fill="rgb(0,102,204)" stroke="none" d="M 13738,14103 L 14166,14103 14166,6300 13738,6300 13738,14103 Z"/>
 <path fill="rgb(0,102,204)" stroke="none" d="M 12882,14103 L 13310,14103 13310,6416 12882,6416 12882,14103 Z"/>
 <path fill="rgb(0,102,204)" stroke="none" d="M 12026,14103 L 12454,14103 12454,5380 12026,5380 12026,14103 Z"/>
 <path fill="rgb(0,102,204)" stroke="none" d="M 11171,14103 L 11599,14103 11599,5851 11171,5851 11171,14103 Z"/>
 <path fill="rgb(0,102,204)" stroke="none" d="M 10315,14103 L 10743,14103 10743,6556 10315,6556 10315,14103 Z"/>
 <path fill="rgb(0,102,204)" stroke="none" d="M 9459,14103 L 9887,14103 9887,4343 9459,4343 9459,14103 Z"/>
 <path fill="rgb(0,102,204)" stroke="none" d="M 8604,14103 L 9031,14103 9031,4917 8604,4917 8604,14103 Z"/>
 <path fill="rgb(0,102,204)" stroke="none" d="M 7748,14103 L 8176,14103 8176,3834 7748,3834 7748,14103 Z"/>
 <path fill="rgb(0,102,204)" stroke="none" d="M 6892,14103 L 7320,14103 7320,5508 6892,5508 6892,14103 Z"/>
 <path fill="rgb(0,102,204)" stroke="none" d="M 6037,14103 L 6464,14103 6464,3119 6037,3119 6037,14103 Z"/>
 <path fill="rgb(0,102,204)" stroke="none" d="M 5181,14103 L 5609,14103 5609,2913 5181,2913 5181,14103 Z"/>
 <path fill="rgb(0,102,204)" stroke="none" d="M 4325,14103 L 4753,14103 4753,2614 4325,2614 4325,14103 Z"/>
 <path fill="rgb(0,102,204)" stroke="none" d="M 3469,14103 L 3897,14103 3897,4279 3469,4279 3469,14103 Z"/>
 <path fill="none" stroke="rgb(255,66,14)" stroke-width="76" stroke-linejoin="round" d="M 3683,3735 L 4539,2905 5395,3086 6250,3136 7106,5001 7962,3420 8818,4525 9673,3772 10529,6545 11385,5286 12240,4762 13096,5877 13952,5771 14807,5361 15663,7190 16519,6563 17374,7711 18229,7699 19085,8670 19941,9261 20796,9591 21652,7782 22508,8017 23363,7761 24219,8901 25075,8253 25930,9922 26786,9278 27642,9943 28498,9191 29353,9877 30209,9997 31065,10009"/>
 <path fill="none" stroke="rgb(255,211,32)" stroke-width="80" stroke-linejoin="round" d="M 3683,3446 L 4539,3012 5395,3103 6250,3148 7106,4813 7962,3397 8818,4301 9673,3728 10529,6329 11385,5220 12240,4701 13096,5829 13952,5704 14807,5243 15663,7105 16519,6365 17374,7619 18229,7340 19085,8792 19941,9589 20796,10254 21652,7700 22508,7953 23363,7715 24219,8831 25075,8239 25930,10443 26786,9729 27642,10954 28498,9445 29353,10810 30209,12016 31065,12286"/>
 <text class="TextShape"><tspan class="TextParagraph" font-family="Liberation Sans, sans-serif" font-size="529px" font-weight="400"><tspan class="TextPosition" x="3537" y="14829"><tspan fill="rgb(0,0,0)" stroke="none">1</tspan></tspan></tspan></text>
 <text class="TextShape"><tspan class="TextParagraph" font-family="Liberation Sans, sans-serif" font-size="529px" font-weight="400"><tspan class="TextPosition" x="4393" y="14829"><tspan fill="rgb(0,0,0)" stroke="none">2</tspan></tspan></tspan></text>
 <text class="TextShape"><tspan class="TextParagraph" font-family="Liberation Sans, sans-serif" font-size="529px" font-weight="400"><tspan class="TextPosition" x="5249" y="14829"><tspan fill="rgb(0,0,0)" stroke="none">3</tspan></tspan></tspan></text>
 <text class="TextShape"><tspan class="TextParagraph" font-family="Liberation Sans, sans-serif" font-size="529px" font-weight="400"><tspan class="TextPosition" x="6104" y="14829"><tspan fill="rgb(0,0,0)" stroke="none">4</tspan></tspan></tspan></text>
 <text class="TextShape"><tspan class="TextParagraph" font-family="Liberation Sans, sans-serif" font-size="529px" font-weight="400"><tspan class="TextPosition" x="6960" y="14829"><tspan fill="rgb(0,0,0)" stroke="none">5</tspan></tspan></tspan></text>
 <text class="TextShape"><tspan class="TextParagraph" font-family="Liberation Sans, sans-serif" font-size="529px" font-weight="400"><tspan class="TextPosition" x="7816" y="14829"><tspan fill="rgb(0,0,0)" stroke="none">6</tspan></tspan></tspan></text>
 <text class="TextShape"><tspan class="TextParagraph" font-family="Liberation Sans, sans-serif" font-size="529px" font-weight="400"><tspan class="TextPosition" x="8672" y="14829"><tspan fill="rgb(0,0,0)" stroke="none">7</tspan></tspan></tspan></text>
 <text class="TextShape"><tspan class="TextParagraph" font-family="Liberation Sans, sans-serif" font-size="529px" font-weight="400"><tspan class="TextPosition" x="9527" y="14829"><tspan fill="rgb(0,0,0)" stroke="none">8</tspan></tspan></tspan></text>
 <text class="TextShape"><tspan class="TextParagraph" font-family="Liberation Sans, sans-serif" font-size="529px" font-weight="400"><tspan class="TextPosition" x="10383" y="14829"><tspan fill="rgb(0,0,0)" stroke="none">9</tspan></tspan></tspan></text>
 <text class="TextShape"><tspan class="TextParagraph" font-family="Liberation Sans, sans-serif" font-size="529px" font-weight="400"><tspan class="TextPosition" x="11094" y="14829"><tspan fill="rgb(0,0,0)" stroke="none">10</tspan></tspan></tspan></text>
 <text class="TextShape"><tspan class="TextParagraph" font-family="Liberation Sans, sans-serif" font-size="529px" font-weight="400"><tspan class="TextPosition" x="11949" y="14829"><tspan fill="rgb(0,0,0)" stroke="none">11</tspan></tspan></tspan></text>
 <text class="TextShape"><tspan class="TextParagraph" font-family="Liberation Sans, sans-serif" font-size="529px" font-weight="400"><tspan class="TextPosition" x="12805" y="14829"><tspan fill="rgb(0,0,0)" stroke="none">12</tspan></tspan></tspan></text>
 <text class="TextShape"><tspan class="TextParagraph" font-family="Liberation Sans, sans-serif" font-size="529px" font-weight="400"><tspan class="TextPosition" x="13661" y="14829"><tspan fill="rgb(0,0,0)" stroke="none">13</tspan></tspan></tspan></text>
 <text class="TextShape"><tspan class="TextParagraph" font-family="Liberation Sans, sans-serif" font-size="529px" font-weight="400"><tspan class="TextPosition" x="14516" y="14829"><tspan fill="rgb(0,0,0)" stroke="none">14</tspan></tspan></tspan></text>
 <text class="TextShape"><tspan class="TextParagraph" font-family="Liberation Sans, sans-serif" font-size="529px" font-weight="400"><tspan class="TextPosition" x="15372" y="14829"><tspan fill="rgb(0,0,0)" stroke="none">15</tspan></tspan></tspan></text>
 <text class="TextShape"><tspan class="TextParagraph" font-family="Liberation Sans, sans-serif" font-size="529px" font-weight="400"><tspan class="TextPosition" x="16228" y="14829"><tspan fill="rgb(0,0,0)" stroke="none">16</tspan></tspan></tspan></text>
 <text class="TextShape"><tspan class="TextParagraph" font-family="Liberation Sans, sans-serif" font-size="529px" font-weight="400"><tspan class="TextPosition" x="17084" y="14829"><tspan fill="rgb(0,0,0)" stroke="none">17</tspan></tspan></tspan></text>
 <text class="TextShape"><tspan class="TextParagraph" font-family="Liberation Sans, sans-serif" font-size="529px" font-weight="400"><tspan class="TextPosition" x="17939" y="14829"><tspan fill="rgb(0,0,0)" stroke="none">18</tspan></tspan></tspan></text>
 <text class="TextShape"><tspan class="TextParagraph" font-family="Liberation Sans, sans-serif" font-size="529px" font-weight="400"><tspan class="TextPosition" x="18795" y="14829"><tspan fill="rgb(0,0,0)" stroke="none">19</tspan></tspan></tspan></text>
 <text class="TextShape"><tspan class="TextParagraph" font-family="Liberation Sans, sans-serif" font-size="529px" font-weight="400"><tspan class="TextPosition" x="19651" y="14829"><tspan fill="rgb(0,0,0)" stroke="none">20</tspan></tspan></tspan></text>
 <text class="TextShape"><tspan class="TextParagraph" font-family="Liberation Sans, sans-serif" font-size="529px" font-weight="400"><tspan class="TextPosition" x="20506" y="14829"><tspan fill="rgb(0,0,0)" stroke="none">21</tspan></tspan></tspan></text>
 <text class="TextShape"><tspan class="TextParagraph" font-family="Liberation Sans, sans-serif" font-size="529px" font-weight="400"><tspan class="TextPosition" x="21362" y="14829"><tspan fill="rgb(0,0,0)" stroke="none">22</tspan></tspan></tspan></text>
 <text class="TextShape"><tspan class="TextParagraph" font-family="Liberation Sans, sans-serif" font-size="529px" font-weight="400"><tspan class="TextPosition" x="22218" y="14829"><tspan fill="rgb(0,0,0)" stroke="none">23</tspan></tspan></tspan></text>
 <text class="TextShape"><tspan class="TextParagraph" font-family="Liberation Sans, sans-serif" font-size="529px" font-weight="400"><tspan class="TextPosition" x="23073" y="14829"><tspan fill="rgb(0,0,0)" stroke="none">24</tspan></tspan></tspan></text>
 <text class="TextShape"><tspan class="TextParagraph" font-family="Liberation Sans, sans-serif" font-size="529px" font-weight="400"><tspan class="TextPosition" x="23929" y="14829"><tspan fill="rgb(0,0,0)" stroke="none">25</tspan></tspan></tspan></text>
 <text class="TextShape"><tspan class="TextParagraph" font-family="Liberation Sans, sans-serif" font-size="529px" font-weight="400"><tspan class="TextPosition" x="24785" y="14829"><tspan fill="rgb(0,0,0)" stroke="none">26</tspan></tspan></tspan></text>
 <text class="TextShape"><tspan class="TextParagraph" font-family="Liberation Sans, sans-serif" font-size="529px" font-weight="400"><tspan class="TextPosition" x="25640" y="14829"><tspan fill="rgb(0,0,0)" stroke="none">27</tspan></tspan></tspan></text>
 <text class="TextShape"><tspan class="TextParagraph" font-family="Liberation Sans, sans-serif" font-size="529px" font-weight="400"><tspan class="TextPosition" x="26496" y="14829"><tspan fill="rgb(0,0,0)" stroke="none">28</tspan></tspan></tspan></text>
 <text class="TextShape"><tspan class="TextParagraph" font-family="Liberation Sans, sans-serif" font-size="529px" font-weight="400"><tspan class="TextPosition" x="27352" y="14829"><tspan fill="rgb(0,0,0)" stroke="none">29</tspan></tspan></tspan></text>
 <text class="TextShape"><tspan class="TextParagraph" font-family="Liberation Sans, sans-serif" font-size="529px" font-weight="400"><tspan class="TextPosition" x="28208" y="14829"><tspan fill="rgb(0,0,0)" stroke="none">30</tspan></tspan></tspan></text>
 <text class="TextShape"><tspan class="TextParagraph" font-family="Liberation Sans, sans-serif" font-size="529px" font-weight="400"><tspan class="TextPosition" x="29063" y="14829"><tspan fill="rgb(0,0,0)" stroke="none">31</tspan></tspan></tspan></text>
 <text class="TextShape"><tspan class="TextParagraph" font-family="Liberation Sans, sans-serif" font-size="529px" font-weight="400"><tspan class="TextPosition" x="29919" y="14829"><tspan fill="rgb(0,0,0)" stroke="none">32</tspan></tspan></tspan></text>
 <text class="TextShape"><tspan class="TextParagraph" font-family="Liberation Sans, sans-serif" font-size="529px" font-weight="400"><tspan class="TextPosition" x="30775" y="14829"><tspan fill="rgb(0,0,0)" stroke="none">33</tspan></tspan></tspan></text>
 <text class="TextShape"><tspan class="TextParagraph" font-family="Liberation Sans, sans-serif" font-size="529px" font-weight="400"><tspan class="TextPosition" x="2715" y="14289"><tspan fill="rgb(0,0,0)" stroke="none">1</tspan></tspan></tspan></text>
 <text class="TextShape"><tspan class="TextParagraph" font-family="Liberation Sans, sans-serif" font-size="529px" font-weight="400"><tspan class="TextPosition" x="2424" y="12499"><tspan fill="rgb(0,0,0)" stroke="none">10</tspan></tspan></tspan></text>
 <text class="TextShape"><tspan class="TextParagraph" font-family="Liberation Sans, sans-serif" font-size="529px" font-weight="400"><tspan class="TextPosition" x="2133" y="10709"><tspan fill="rgb(0,0,0)" stroke="none">100</tspan></tspan></tspan></text>
 <text class="TextShape"><tspan class="TextParagraph" font-family="Liberation Sans, sans-serif" font-size="529px" font-weight="400"><tspan class="TextPosition" x="1842" y="8919"><tspan fill="rgb(0,0,0)" stroke="none">1000</tspan></tspan></tspan></text>
 <text class="TextShape"><tspan class="TextParagraph" font-family="Liberation Sans, sans-serif" font-size="529px" font-weight="400"><tspan class="TextPosition" x="1551" y="7129"><tspan fill="rgb(0,0,0)" stroke="none">10000</tspan></tspan></tspan></text>
 <text class="TextShape"><tspan class="TextParagraph" font-family="Liberation Sans, sans-serif" font-size="529px" font-weight="400"><tspan class="TextPosition" x="1260" y="5339"><tspan fill="rgb(0,0,0)" stroke="none">100000</tspan></tspan></tspan></text>
 <text class="TextShape"><tspan class="TextParagraph" font-family="Liberation Sans, sans-serif" font-size="529px" font-weight="400"><tspan class="TextPosition" x="969" y="3549"><tspan fill="rgb(0,0,0)" stroke="none">1000000</tspan></tspan></tspan></text>
 <text class="TextShape"><tspan class="TextParagraph" font-family="Liberation Sans, sans-serif" font-size="529px" font-weight="400"><tspan class="TextPosition" x="678" y="1759"><tspan fill="rgb(0,0,0)" stroke="none">10000000</tspan></tspan></tspan></text>
 <text class="TextShape"><tspan class="TextParagraph" font-family="Liberation Sans, sans-serif" font-size="529px" font-weight="400"><tspan class="TextPosition" x="31743" y="14289"><tspan fill="rgb(0,0,0)" stroke="none">0.01</tspan></tspan></tspan></text>
 <text class="TextShape"><tspan class="TextParagraph" font-family="Liberation Sans, sans-serif" font-size="529px" font-weight="400"><tspan class="TextPosition" x="31743" y="12200"><tspan fill="rgb(0,0,0)" stroke="none">0.1</tspan></tspan></tspan></text>
 <text class="TextShape"><tspan class="TextParagraph" font-family="Liberation Sans, sans-serif" font-size="529px" font-weight="400"><tspan class="TextPosition" x="31743" y="10112"><tspan fill="rgb(0,0,0)" stroke="none">1</tspan></tspan></tspan></text>
 <text class="TextShape"><tspan class="TextParagraph" font-family="Liberation Sans, sans-serif" font-size="529px" font-weight="400"><tspan class="TextPosition" x="31743" y="8024"><tspan fill="rgb(0,0,0)" stroke="none">10</tspan></tspan></tspan></text>
 <text class="TextShape"><tspan class="TextParagraph" font-family="Liberation Sans, sans-serif" font-size="529px" font-weight="400"><tspan class="TextPosition" x="31743" y="5935"><tspan fill="rgb(0,0,0)" stroke="none">100</tspan></tspan></tspan></text>
 <text class="TextShape"><tspan class="TextParagraph" font-family="Liberation Sans, sans-serif" font-size="529px" font-weight="400"><tspan class="TextPosition" x="31743" y="3847"><tspan fill="rgb(0,0,0)" stroke="none">1000</tspan></tspan></tspan></text>
 <text class="TextShape"><tspan class="TextParagraph" font-family="Liberation Sans, sans-serif" font-size="529px" font-weight="400"><tspan class="TextPosition" x="31743" y="1759"><tspan fill="rgb(0,0,0)" stroke="none">10000</tspan></tspan></tspan></text>
 <path fill="rgb(0,102,204)" stroke="none" d="M 11207,740 L 10807,740 10807,423 11607,423 11607,740 11207,740 Z"/>
 <path fill="none" stroke="rgb(255,66,14)" stroke-width="76" stroke-linejoin="round" d="M 14588,581 L 15388,581"/>
 <path fill="none" stroke="rgb(255,211,32)" stroke-width="80" stroke-linejoin="round" d="M 20669,581 L 21469,581"/>
 <text class="TextShape"><tspan class="TextParagraph" font-family="Liberation Sans, sans-serif" font-size="529px" font-weight="400"><tspan class="TextPosition" x="11723" y="766"><tspan fill="rgb(0,0,0)" stroke="none">num of hits</tspan></tspan></tspan></text>
 <text class="TextShape"><tspan class="TextParagraph" font-family="Liberation Sans, sans-serif" font-size="529px" font-weight="400"><tspan class="TextPosition" x="15504" y="766"><tspan fill="rgb(0,0,0)" stroke="none">ES without cache (s)</tspan></tspan></tspan></text>
 <text class="TextShape"><tspan class="TextParagraph" font-family="Liberation Sans, sans-serif" font-size="529px" font-weight="400"><tspan class="TextPosition" x="21585" y="766"><tspan fill="rgb(0,0,0)" stroke="none">ES (s)</tspan></tspan></tspan></text>
</svg>